<svg xmlns="http://www.w3.org/2000/svg" viewBox="0 0 120 140" width="120" height="140">
  <!-- 地理断面符号 -->
  <!-- 上部岸体：黑色实心梯形 -->
  <polygon points="8,28 56,6 112,28 112,10 8,10" fill="#000"/>
  <!-- 岸线折面 -->
  <polygon points="8,28 56,6 112,28 112,22 60,2 8,22" fill="#000"/>
  <!-- 江面弧面 -->
  <path d="M8 28 Q28 48 60 32 Q92 48 112 28 L112 52 Q92 70 60 54 Q28 70 8 52 Z" fill="#000"/>
  <!-- 红色监测柱 -->
  <rect x="74" y="10" width="6" height="22" fill="#C94A4A" rx="2"/>
  <!-- 水位标记 -->
  <rect x="8" y="38" width="104" height="2" fill="#000" opacity="0.3"/>
  <!-- 水位标记 -->
  <rect x="8" y="38" width="104" height="2" fill="#000" opacity="0.3"/>
  
  <!-- YRCW 字标 -->
  <text x="60" y="100" font-family="Helvetica, Arial, sans-serif" font-size="22" font-weight="700" letter-spacing="6" fill="#000" text-anchor="middle">YRCW</text>
  <!-- 副标题 -->
  <text x="60" y="116" font-family="Helvetica, Arial, sans-serif" font-size="6" font-weight="400" letter-spacing="3" fill="#000" opacity="0.5" text-anchor="middle">YANGTZE RIVER</text>
</svg>
